<?xml version="1.0" encoding="utf-8"?>
<!-- Svg Vector Icons : http://www.onlinewebfonts.com/icon -->
<!DOCTYPE svg PUBLIC "-//W3C//DTD SVG 1.1//EN" "http://www.w3.org/Graphics/SVG/1.1/DTD/svg11.dtd">
<svg version="1.1" xmlns="http://www.w3.org/2000/svg" xmlns:xlink="http://www.w3.org/1999/xlink" x="0px" y="0px" viewBox="0 0 1000 1000" enable-background="new 0 0 1000 1000" xml:space="preserve">
<metadata> Svg Vector Icons : http://www.onlinewebfonts.com/icon </metadata>
<g><g transform="translate(0.000000,492.000000) scale(0.100000,-0.100000)"><path d="M3361.1,4809.4c-967.7-119.7-1761.9-726.3-2033.2-1556.3c-137.7-425-133.7-989.7,8-1370.8c67.8-181.6,187.6-377.1,309.3-510.8l99.8-109.7l-77.8-165.6c-223.5-476.9-251.4-682.4-233.5-1733.9c21.9-1504.5,99.8-2454.2,263.4-3272.3c79.8-401.1,111.7-518.8,181.6-674.4c113.7-259.4,267.4-393.1,454.9-391.1c125.7,0,213.5,45.9,289.3,151.7c107.7,147.7,137.7,303.3,189.6,993.7c57.9,760.2,215.5,2370.4,251.4,2562c35.9,199.5,73.8,225.5,227.5,153.6c169.6-79.8,417-335.2,530.8-546.7c69.8-133.7,73.8-159.6,177.6-1390.7c107.7-1271,135.7-1438.6,295.3-1676.1c181.6-271.4,488.9-333.2,684.4-137.7c137.7,137.7,167.6,347.2,187.6,1285c20,955.8,49.9,1370.8,113.7,1588.3c18,63.8,31.9,75.8,91.8,85.8c39.9,6,73.8,8,75.8,6c2-2,17.9-137.7,35.9-303.3c37.9-329.2,193.6-1520.4,241.4-1835.7c63.8-407.1,181.6-710.3,327.2-830c87.8-71.8,241.4-119.7,327.2-103.8c219.5,41.9,321.3,203.5,381.1,608.6c17.9,117.7,81.8,868,141.7,1666.1c59.9,798.1,113.7,1490.5,119.7,1534.4l12,83.8l153.6,14c317.3,29.9,694.4,179.6,935.8,371.1c325.2,257.4,542.7,682.4,624.5,1215.1c47.9,321.2,23.9,915.8-59.9,1454.6c-97.8,646.5-151.6,780.2-309.3,780.2c-39.9,0-89.8-8-109.7-20c-20-10-201.5-219.5-405-464.9l-371.1-447l-135.7,25.9c-253.4,49.9-496.8,55.9-730.3,20c-119.7-20-219.5-31.9-221.5-27.9c-4,4-125.7,201.5-269.4,439c-145.7,237.4-275.4,443-291.3,454.9c-43.9,35.9-173.6,43.9-229.5,16c-67.8-35.9-183.6-213.5-271.4-415c-39.9-93.8-73.8-171.6-77.8-175.6c-2-2-83.8,31.9-181.6,77.8c-255.4,119.7-500.8,211.5-712.3,269.4c-470.9,127.7-1063.5,61.9-1488.5-163.6c-191.5-101.8-223.5-99.8-337.2,18c-109.7,113.7-129.7,237.4-71.8,435c63.8,215.5,165.6,377.1,367.1,576.6c381.1,381.1,688.4,482.9,1271,421c393.1-39.9,610.6-123.7,869.9-329.2c225.5-181.6,305.3-219.5,447-221.5c107.8,0,129.7,6,183.6,57.9c35.9,35.9,67.8,93.8,81.8,153.6c20,83.8,18,115.7-17.9,231.5c-51.9,171.6-127.7,293.3-285.4,448.9c-311.3,311.3-748.2,536.7-1229.1,632.5C3931.8,4815.4,3566.7,4833.4,3361.1,4809.4z M4209.1,4342.5c193.5-49.9,544.7-207.5,648.5-291.3l49.9-39.9l-89.8,35.9c-375.1,155.6-1071.5,219.5-1418.7,127.7c-327.2-87.8-612.6-261.4-870-528.8c-343.2-359.2-496.8-706.3-480.9-1081.5c10-223.5,57.9-333.2,217.5-494.8c131.7-129.7,329.2-235.5,474.9-249.4c81.8-6,101.8,0,187.6,65.8c211.5,161.6,447,239.4,808.1,269.4c299.3,24,566.7-29.9,955.8-191.5c141.7-57.9,441-199.5,460.9-217.5c4-2-8-111.7-27.9-241.4c-43.9-327.2-29.9-973.7,29.9-1241.1c155.6-702.4,564.7-1127.4,1247.1-1295c159.6-39.9,211.5-59.9,211.5-85.8c0-133.7-225.5-2951.1-249.4-3128.6c-45.9-317.3-51.9-331.2-107.7-215.5c-23.9,51.9-59.8,167.6-81.8,257.4c-37.9,163.6-229.5,1544.4-289.3,2089.1c-47.9,433-73.8,498.8-235.4,582.6c-71.8,35.9-105.8,39.9-265.4,31.9c-303.3-16-425-113.7-502.8-407c-61.9-229.5-79.8-425-103.8-1115.4c-33.9-997.6-55.9-1452.6-75.8-1504.5l-18-47.9l-45.9,63.9c-105.8,149.6-137.7,357.1-229.5,1458.6c-57.9,708.3-105.7,1217.1-121.7,1316.9c-33.9,201.5-239.4,512.8-500.8,758.2c-351.2,331.2-720.3,403.1-939.8,183.6c-87.8-87.8-131.7-173.6-173.6-335.2c-31.9-129.7-203.5-1831.7-271.4-2701.7c-23.9-299.3-53.9-582.6-65.8-628.5l-23.9-79.8l-43.9,83.8c-153.6,297.3-317.3,1332.9-383.1,2452.2c-31.9,516.8-55.9,2039.2-37.9,2240.7c29.9,309.3,125.7,582.6,327.2,937.8c85.8,149.6,73.8,181.6-135.7,387.1c-205.5,201.5-285.3,333.2-349.2,564.7c-79.8,289.3-73.8,670.4,18,965.7c201.5,654.5,790.1,1139.3,1564.3,1289C3498.8,4426.3,3963.7,4406.4,4209.1,4342.5z M6170.5,1453.3c59.9-69.8,145.7-73.8,355.2-23.9c253.4,63.8,500.8,65.8,786.1,10c277.4-55.9,317.3-53.9,393.1,14c33.9,29.9,171.6,187.6,307.3,351.2c135.7,163.6,249.4,285.3,251.4,269.4c229.5-1342.8,77.8-2135-482.9-2510.1C7415.6-679.6,6835-749.5,6384-605.8c-423,137.7-686.4,419-806.1,865.9c-117.7,439-97.8,1139.3,45.9,1636.2c95.8,329.2,63.9,335.2,305.3-61.9C6044.8,1642.9,6154.6,1471.3,6170.5,1453.3z"/><path d="M6280.3,898.6c-179.6-109.7-203.5-339.2-47.9-482.9c71.8-67.8,91.8-75.8,187.5-75.8c129.7,0,225.5,55.9,279.3,159.6c45.9,89.8,35.9,231.5-21.9,313.3C6591.6,934.6,6404,974.5,6280.3,898.6z"/><path d="M7311.8,902.6c-277.3-137.7-171.6-562.7,139.7-562.7c171.6,0,299.3,129.7,299.3,301.3c0,163.6-135.7,297.3-299.3,297.3C7413.6,938.5,7349.8,922.6,7311.8,902.6z"/></g></g>
</svg>