<?xml version="1.0" encoding="utf-8"?>
<!-- Generator: Adobe Illustrator 19.0.0, SVG Export Plug-In . SVG Version: 6.00 Build 0)  -->
<svg version="1.1" id="Layer_1" xmlns="http://www.w3.org/2000/svg" xmlns:xlink="http://www.w3.org/1999/xlink" x="0px" y="0px"
	 viewBox="340 -340 1080 1080" style="enable-background:new 340 -340 1080 1080;" xml:space="preserve">
<desc>Created with Fabric.js 3.5.0</desc>
<g id="_x36_7326" transform="matrix(1.8211 0 0 -1.8211 539.9885 647.991)">
	<path vector-effect="non-scaling-stroke" d="M456,67.6c-2.3,17.8-19.6,45.4-33.7,50c-14,4.7-55.2,19.2-58,25.7
		c-2.8,6.5-11.2,27.1-9.8,33.2c1.4,6.1,12.6,36.5,10.8,64.1c-1.9,27.6-7.9,50-5.1,56.1c2.8,6.1,25.9,29.9,25.9,35.5
		c0,8.2,2.3,10.8,2.4,15.4c0.1,2.6-5,11.7-8.5,14.3c-3.5,2.6-20.8,3.6-24.1,5.9c-3.3,2.3-3.8,7.1-8,8c-3.5,0.8-7-0.5-10.2-0.1
		c-3.3,0.5-6.1,2.3-8.4,1.9c-2.3-0.5-3.6,0.4-5,4.6c-1.4,4.2-4.2,17.3-6,17.6c-1.8,0.4-6.8-7.9-7.9-17.3c-1.2-9.4-1.6-11.5-5.8-11.7
		s-27,24.3-32.7,23.4c-5.7-0.9-8.7-8.9-3.3-35c5.4-26.2,8.6-36.9,6.5-46.8c-2.1-9.8-3.3-26.9-2.8-34.4c0.5-7.5,0.5-14.3-1.9-16.4
		c-2.3-2.1-105.8-34.9-149.2-104.7C83.8,96.6,97.8,22.2,94.5,17.5c-4.4-6.3-22.9-14.8-37.4-15C0.7,2.1-26.5,12.8-42.3,32
		c-28.1,34.1-16.8,75.7-7.9,94c4.8,9.8,8.6,21.4,8.4,25.7c-0.2,4.6-9.4,9.4-16.8,2.3c-9.4-8.9-19-28.8-22.9-57.5
		c-3.3-23.8-4.8-79.4,52.7-109.4C0.7-28.3,48.2-26.3,94.5-26.3h240.8c0,0,7.7,0,7.7,6.4c0,4.8-26.4,47.2-31.5,60.8
		c-5.1,13.6-9.4,30.4-8.4,35.1c0.9,4.7,8.3,31.5,13.7,35.4c5.4,3.9,18-8.3,42.8-13c24.8-4.7,52.4-9.4,57-13.1
		c4.7-3.7,7.5-11.8,7.7-16.9c0.2-5.1,3-21,12.4-22.4C446.1,44.7,458.3,49.8,456,67.6 M293.7-6.7c-1.2-2.3-6.5-0.2-10.1,1.2
		c-3.5,1.4-8.2-1.2-13.8-1.4c-5.6-0.2-16.4,11-20.2,12.7c-3.9,1.7-9.5-0.3-12.1,0c-2.7,0.3-2.8,3.5-2.8,3.5
		c7.9,11.3,13,33.1,13.9,40.6c0.9,7.5-4.1,13.9-4.1,13.9S254.7,80,256.3,83c1.6,3,6.8,3.3,8.9,1.9c2.1-1.4,5.1-31.1,8.6-46.1
		C277.4,23.9,291.8-0.4,293.7-6.7"/>
</g>
<g id="_x33_66076" transform="matrix(1 0 0 1 409.5446 315.4455)">
	<path vector-effect="non-scaling-stroke" d="M384.3-563.5H276c-52.9,0-96,43.1-96,96c0,17.7,14.3,31.1,32,31.1s32-14.3,32-31.1
		c0-17.6,14.3-32,32-32h108.3c28.5,0,51.7,23.2,51.7,51.8c0,19.7-11,37.5-30.5,47.3l-97.7,57.3c-10.7,5.8-15.8,16.3-15.8,27.6v40
		c0,17.7,14.3,32,32,32s32-14.3,32-32v-21.7l80-47c39.5-19.8,64-59.4,64-103.5C500-511.6,448.1-563.5,384.3-563.5z M324-195.6
		c-22.1,0-40,17.9-40,40s17.9,39.1,40,39.1s40-17.9,40-39.1S346.1-195.6,324-195.6z"/>
</g>
</svg>
